<svg width="197" height="48" viewBox="0 0 197 48" fill="none" xmlns="http://www.w3.org/2000/svg">
<path d="M90.2 32L83.116 12.4H79.252L72.14 32H75.64L77.012 28.052H85.356L86.728 32H90.2ZM81.184 16.18L84.292 25.028H78.076L81.184 16.18ZM99.5702 12.036C95.4262 11.784 93.2422 13.884 93.2422 17.72V18H91.1142V20.912H93.2422V32H96.2662V20.912H99.5702V18H96.2662V17.72C96.2662 15.676 97.3582 14.752 99.5702 14.948V12.036ZM104.924 18H101.9V32H104.924V24.944C104.924 23.516 105.344 22.48 106.212 21.864C107.08 21.22 108.088 20.94 109.236 21.024V17.748C107.136 17.748 105.68 18.616 104.924 20.352V18ZM114.886 15.34C115.67 14.556 115.67 13.38 114.914 12.624C114.158 11.84 112.926 11.84 112.17 12.624C111.414 13.38 111.414 14.556 112.17 15.34C112.954 16.096 114.13 16.096 114.886 15.34ZM115.054 32V18H112.03V32H115.054ZM130.213 19.988C129.065 18.42 127.441 17.636 125.313 17.636C123.381 17.636 121.757 18.336 120.385 19.764C119.013 21.192 118.341 22.928 118.341 25C118.341 27.044 119.013 28.808 120.385 30.236C121.757 31.664 123.381 32.364 125.313 32.364C127.441 32.364 129.065 31.58 130.213 29.984V32H133.237V18H130.213V19.988ZM122.625 28.22C121.785 27.352 121.365 26.288 121.365 25C121.365 23.712 121.785 22.648 122.625 21.808C123.465 20.94 124.529 20.52 125.789 20.52C127.049 20.52 128.113 20.94 128.953 21.808C129.793 22.648 130.213 23.712 130.213 25C130.213 26.288 129.793 27.352 128.953 28.22C128.113 29.06 127.049 29.48 125.789 29.48C124.529 29.48 123.465 29.06 122.625 28.22ZM144.686 17.636C142.698 17.636 141.27 18.364 140.346 19.792V18H137.322V32H140.346V24.496C140.346 21.78 141.774 20.464 143.902 20.464C145.834 20.464 147.038 21.612 147.038 23.712V32H150.062V23.404C150.062 19.82 147.906 17.636 144.686 17.636ZM156.594 21.864C156.594 20.884 157.49 20.38 158.638 20.38C159.898 20.38 160.794 20.912 161.27 21.976L163.818 20.548C162.838 18.728 160.962 17.636 158.638 17.636C157.182 17.636 155.95 18.028 154.97 18.812C153.99 19.596 153.514 20.632 153.514 21.92C153.458 24.86 156.286 25.7 158.386 26.232C159.87 26.596 161.046 27.128 161.046 28.024C161.046 29.06 160.262 29.592 158.666 29.592C157.07 29.592 156.034 28.92 155.558 27.576L152.954 29.088C153.85 31.132 155.894 32.364 158.666 32.364C160.234 32.364 161.522 31.972 162.558 31.216C163.594 30.46 164.126 29.396 164.126 28.052C164.182 25.056 161.382 24.16 159.226 23.684C157.77 23.264 156.594 22.788 156.594 21.864ZM173.172 24.86L179.332 18H175.636L170.204 24.188V12.4H167.18V32H170.204V25.532L175.944 32H179.556L173.172 24.86ZM192.117 19.988C190.969 18.42 189.345 17.636 187.217 17.636C185.285 17.636 183.661 18.336 182.289 19.764C180.917 21.192 180.245 22.928 180.245 25C180.245 27.044 180.917 28.808 182.289 30.236C183.661 31.664 185.285 32.364 187.217 32.364C189.345 32.364 190.969 31.58 192.117 29.984V32H195.141V18H192.117V19.988ZM184.529 28.22C183.689 27.352 183.269 26.288 183.269 25C183.269 23.712 183.689 22.648 184.529 21.808C185.369 20.94 186.433 20.52 187.693 20.52C188.953 20.52 190.017 20.94 190.857 21.808C191.697 22.648 192.117 23.712 192.117 25C192.117 26.288 191.697 27.352 190.857 28.22C190.017 29.06 188.953 29.48 187.693 29.48C186.433 29.48 185.369 29.06 184.529 28.22Z" fill="white"/>
<g clip-path="url(#clip0_72_19)">
<ellipse cx="16.0175" cy="24" rx="15.4495" ry="16" fill="#98C3E8"/>
<path d="M45.9165 24C45.9165 32.3176 39.4146 39 31.467 39C23.5195 39 17.0175 32.3176 17.0175 24C17.0175 15.6824 23.5195 9 31.467 9C39.4146 9 45.9165 15.6824 45.9165 24Z" fill="white" stroke="#316099" stroke-width="2"/>
<path d="M31.5634 29.7383H27.1298L26.2118 33H24.9032L29.0048 18.9961H29.6688L33.7899 33H32.4911L31.5634 29.7383ZM27.4716 28.5371H31.2313L29.3856 22.082L29.3466 21.5645L29.3075 22.082L27.4716 28.5371Z" fill="#316099"/>
</g>
<defs>
<clipPath id="clip0_72_19">
<rect width="46.3485" height="48" fill="white" transform="matrix(1 0 0 -1 0.568054 48)"/>
</clipPath>
</defs>
</svg>
